<?xml version="1.0" encoding="UTF-8" standalone="no"?>
<!-- Created with Inkscape (http://www.inkscape.org/) -->

<svg
   width="85.97821mm"
   height="76.556664mm"
   viewBox="0 0 85.97821 76.556664"
   version="1.1"
   id="svg1"
   sodipodi:docname="chatbot.svg"
   inkscape:version="1.3.2 (091e20e, 2023-11-25, custom)"
   xmlns:inkscape="http://www.inkscape.org/namespaces/inkscape"
   xmlns:sodipodi="http://sodipodi.sourceforge.net/DTD/sodipodi-0.dtd"
   xmlns="http://www.w3.org/2000/svg"
   xmlns:svg="http://www.w3.org/2000/svg">
  <sodipodi:namedview
     id="namedview1"
     pagecolor="#ffffff"
     bordercolor="#000000"
     borderopacity="0.25"
     inkscape:showpageshadow="2"
     inkscape:pageopacity="0.0"
     inkscape:pagecheckerboard="0"
     inkscape:deskcolor="#d1d1d1"
     inkscape:document-units="mm"
     inkscape:zoom="2.9603915"
     inkscape:cx="162.47851"
     inkscape:cy="144.74437"
     inkscape:window-width="1920"
     inkscape:window-height="1057"
     inkscape:window-x="-8"
     inkscape:window-y="-8"
     inkscape:window-maximized="1"
     inkscape:current-layer="svg1" />
  <defs
     id="defs1">
    <linearGradient
       id="SVGID_1_"
       gradientUnits="userSpaceOnUse"
       x1="141.9633"
       y1="197.7943"
       x2="154.8226"
       y2="232.6981"
       gradientTransform="matrix(0.26458333,0,0,0.26458333,-5.035814,-31.563733)">
      <stop
         offset="0"
         style="stop-color:#AEF0EB"
         id="stop1" />
      <stop
         offset="0.0131"
         style="stop-color:#B0F0EB"
         id="stop2" />
      <stop
         offset="0.1379"
         style="stop-color:#C2F4EB"
         id="stop3" />
      <stop
         offset="0.2895"
         style="stop-color:#CEF6EA"
         id="stop4" />
      <stop
         offset="0.4961"
         style="stop-color:#D5F8EA"
         id="stop5" />
      <stop
         offset="1"
         style="stop-color:#D7F8EA"
         id="stop6" />
    </linearGradient>
    <linearGradient
       id="SVGID_00000162336140605741294590000013698265861838273668_"
       gradientUnits="userSpaceOnUse"
       x1="126.9213"
       y1="325.64191"
       x2="205.81821"
       y2="244.7011"
       gradientTransform="matrix(0.02955396,0.26291646,-0.26291646,0.02955396,132.8623,4.04693)">
      <stop
         offset="0.0397"
         style="stop-color:#06BED8"
         id="stop7" />
      <stop
         offset="1"
         style="stop-color:#DEFA8E"
         id="stop8" />
    </linearGradient>
    <linearGradient
       id="SVGID_00000179603758579807138330000017611054551750277518_"
       gradientUnits="userSpaceOnUse"
       x1="257.30869"
       y1="145.3989"
       x2="272.0051"
       y2="143.25571"
       gradientTransform="matrix(0.26458333,0,0,0.26458333,-5.035814,-31.563733)">
      <stop
         offset="0.0397"
         style="stop-color:#06CFF1"
         id="stop9" />
      <stop
         offset="1"
         style="stop-color:#DEFA8E"
         id="stop10" />
    </linearGradient>
    <linearGradient
       id="SVGID_00000154415369398601776150000013611285715959114680_"
       gradientUnits="userSpaceOnUse"
       x1="253.5602"
       y1="182.7164"
       x2="279.64099"
       y2="153.2704"
       gradientTransform="matrix(0.26458333,0,0,0.26458333,-5.035814,-31.563733)">
      <stop
         offset="0.0397"
         style="stop-color:#06CFF1"
         id="stop11" />
      <stop
         offset="1"
         style="stop-color:#DEFA8E"
         id="stop12" />
    </linearGradient>
    <linearGradient
       id="SVGID_00000147902338484093633970000010694665826741577653_"
       gradientUnits="userSpaceOnUse"
       x1="215.7845"
       y1="284.71179"
       x2="319.1329"
       y2="181.3633"
       gradientTransform="matrix(0.26458333,0,0,0.26458333,-5.035814,-31.563733)">
      <stop
         offset="0.0397"
         style="stop-color:#06CFF1"
         id="stop13" />
      <stop
         offset="1"
         style="stop-color:#DEFA8E"
         id="stop14" />
    </linearGradient>
    <linearGradient
       id="SVGID_00000155120228513843239130000000790490387072230335_"
       gradientUnits="userSpaceOnUse"
       x1="267.02081"
       y1="246.056"
       x2="267.93939"
       y2="204.7225"
       gradientTransform="matrix(0.26458333,0,0,0.26458333,-5.035814,-31.563733)">
      <stop
         offset="0"
         style="stop-color:#030D14"
         id="stop15" />
      <stop
         offset="1"
         style="stop-color:#0B2F45"
         id="stop16" />
    </linearGradient>
    <radialGradient
       id="SVGID_00000018211886156726300520000014623855983873919901_"
       cx="243.0316"
       cy="225.0789"
       r="17.1784"
       gradientUnits="userSpaceOnUse"
       gradientTransform="matrix(0.26458333,0,0,0.26458333,-5.035814,-31.563733)">
      <stop
         offset="0.1296"
         style="stop-color:#3280FC"
         id="stop17" />
      <stop
         offset="1"
         style="stop-color:#000000"
         id="stop18" />
    </radialGradient>
    <linearGradient
       id="SVGID_00000033362865301656935800000009991999107787559561_"
       gradientUnits="userSpaceOnUse"
       x1="232.5672"
       y1="225.0789"
       x2="253.496"
       y2="225.0789"
       gradientTransform="matrix(0.26458333,0,0,0.26458333,-5.035814,-31.563733)">
      <stop
         offset="0"
         style="stop-color:#030D14"
         id="stop19" />
      <stop
         offset="1"
         style="stop-color:#0B2F45"
         id="stop20" />
    </linearGradient>
    <radialGradient
       id="SVGID_00000013879949440216895660000014560071857704914854_"
       cx="289.9238"
       cy="225.0789"
       r="17.1784"
       gradientUnits="userSpaceOnUse"
       gradientTransform="matrix(0.26458333,0,0,0.26458333,-5.035814,-31.563733)">
      <stop
         offset="0.1296"
         style="stop-color:#3280FC"
         id="stop24" />
      <stop
         offset="1"
         style="stop-color:#000000"
         id="stop25" />
    </radialGradient>
    <linearGradient
       id="SVGID_00000062154902142082053850000006219797211032380579_"
       gradientUnits="userSpaceOnUse"
       x1="279.45941"
       y1="225.0789"
       x2="300.38821"
       y2="225.0789"
       gradientTransform="matrix(0.26458333,0,0,0.26458333,-5.035814,-31.563733)">
      <stop
         offset="0"
         style="stop-color:#030D14"
         id="stop26" />
      <stop
         offset="1"
         style="stop-color:#0B2F45"
         id="stop27" />
    </linearGradient>
    <linearGradient
       id="SVGID_00000088120625222993170300000018402538022134391970_"
       gradientUnits="userSpaceOnUse"
       x1="254.0799"
       y1="127.6524"
       x2="273.52921"
       y2="124.816"
       gradientTransform="matrix(0.26458333,0,0,0.26458333,-5.035814,-31.563733)">
      <stop
         offset="0.0397"
         style="stop-color:#06CFF1"
         id="stop31" />
      <stop
         offset="1"
         style="stop-color:#DEFA8E"
         id="stop32" />
    </linearGradient>
    <linearGradient
       id="SVGID_00000085215910500040245870000003427998582676835513_"
       gradientUnits="userSpaceOnUse"
       x1="266.66461"
       y1="262.1102"
       x2="296.58749"
       y2="232.1873"
       gradientTransform="matrix(0.26458333,0,0,0.26458333,-5.035814,-31.563733)">
      <stop
         offset="0.0714"
         style="stop-color:#0DA9AB"
         id="stop37" />
      <stop
         offset="1"
         style="stop-color:#DEFA8E"
         id="stop38" />
    </linearGradient>
    <linearGradient
       id="SVGID_00000114774809475665888460000004890406981806392244_"
       gradientUnits="userSpaceOnUse"
       x1="238.40359"
       y1="352.91431"
       x2="317.6843"
       y2="260.3349"
       gradientTransform="matrix(0.26458333,0,0,0.26458333,-5.035814,-31.563733)">
      <stop
         offset="0.0397"
         style="stop-color:#06CFF1"
         id="stop39" />
      <stop
         offset="0.0408"
         style="stop-color:#06CFF1"
         id="stop40" />
      <stop
         offset="0.1607"
         style="stop-color:#37D9DB"
         id="stop41" />
      <stop
         offset="0.2745"
         style="stop-color:#5DE0CA"
         id="stop42" />
      <stop
         offset="0.3793"
         style="stop-color:#78E6BD"
         id="stop43" />
      <stop
         offset="0.4719"
         style="stop-color:#88E9B6"
         id="stop44" />
      <stop
         offset="0.5423"
         style="stop-color:#8EEAB3"
         id="stop45" />
      <stop
         offset="0.8004"
         style="stop-color:#B9F39F"
         id="stop46" />
      <stop
         offset="1"
         style="stop-color:#DEFA8E"
         id="stop47" />
    </linearGradient>
    <linearGradient
       id="SVGID_00000138534491986264145230000009194552508848950150_"
       gradientUnits="userSpaceOnUse"
       x1="234.2039"
       y1="306.75949"
       x2="281.88031"
       y2="251.0858"
       gradientTransform="matrix(0.26458333,0,0,0.26458333,-5.035814,-31.563733)">
      <stop
         offset="0.0397"
         style="stop-color:#06CFF1"
         id="stop48" />
      <stop
         offset="1"
         style="stop-color:#DEFA8E"
         id="stop49" />
    </linearGradient>
    <linearGradient
       id="SVGID_00000148650961268395584350000012783459194915067324_"
       gradientUnits="userSpaceOnUse"
       x1="379.99591"
       y1="355.04141"
       x2="445.21359"
       y2="321.05469"
       gradientTransform="matrix(-0.26156708,-0.03981979,-0.03981979,0.26156708,197.56652,-19.581918)">
      <stop
         offset="0.0397"
         style="stop-color:#06CFF1"
         id="stop50" />
      <stop
         offset="0.0734"
         style="stop-color:#0FD1ED"
         id="stop51" />
      <stop
         offset="0.4151"
         style="stop-color:#67E2C5"
         id="stop52" />
      <stop
         offset="0.6937"
         style="stop-color:#A7EFA7"
         id="stop53" />
      <stop
         offset="0.8955"
         style="stop-color:#CFF795"
         id="stop54" />
      <stop
         offset="1"
         style="stop-color:#DEFA8E"
         id="stop55" />
    </linearGradient>
    <linearGradient
       id="SVGID_00000142147404709463399300000014273441360181628339_"
       gradientUnits="userSpaceOnUse"
       x1="284.33221"
       y1="334.87979"
       x2="326.40039"
       y2="312.95691"
       gradientTransform="matrix(0.26458333,0,0,0.26458333,-5.035814,-31.563733)">
      <stop
         offset="0.0397"
         style="stop-color:#06BED8"
         id="stop56" />
      <stop
         offset="1"
         style="stop-color:#DEFA8E"
         id="stop57" />
    </linearGradient>
    <radialGradient
       id="SVGID_00000005989100045373852490000015507407940870264481_"
       cx="268.9718"
       cy="259.96521"
       r="48.487999"
       gradientTransform="matrix(0.26775833,0,0,0.10961687,-5.686001,42.74497)"
       gradientUnits="userSpaceOnUse">
      <stop
         offset="0"
         style="stop-color:#BCD7D6"
         id="stop59" />
      <stop
         offset="1"
         style="stop-color:#FFFFFF"
         id="stop60" />
    </radialGradient>
    <linearGradient
       id="SVGID_00000080904704391898222810000005549099685581539727_"
       gradientUnits="userSpaceOnUse"
       x1="19.033199"
       y1="166.75281"
       x2="181.0072"
       y2="166.75281"
       gradientTransform="matrix(0.26458333,0,0,0.26458333,-5.035814,-31.563733)">
      <stop
         offset="0"
         style="stop-color:#D7F8EA"
         id="stop61" />
      <stop
         offset="0.5053"
         style="stop-color:#ECF8F2"
         id="stop62" />
      <stop
         offset="1"
         style="stop-color:#D7F8EA"
         id="stop63" />
    </linearGradient>
    <linearGradient
       id="SVGID_00000121999812026972802600000007268796830394815665_"
       gradientUnits="userSpaceOnUse"
       x1="44.976002"
       y1="168.9547"
       x2="175.72279"
       y2="141.19341"
       gradientTransform="matrix(0.26429229,-0.01214437,0.01214437,0.26429229,-7.1819552,-30.034679)">
      <stop
         offset="0.0397"
         style="stop-color:#06CFF1"
         id="stop64" />
      <stop
         offset="1"
         style="stop-color:#DEFA8E"
         id="stop65" />
    </linearGradient>
    <linearGradient
       id="SVGID_00000106859313843583722360000003614503126173023656_"
       gradientUnits="userSpaceOnUse"
       x1="47.184898"
       y1="179.35741"
       x2="177.9328"
       y2="151.5959"
       gradientTransform="matrix(0.26429229,-0.01214437,0.01214437,0.26429229,-7.1819552,-30.034679)">
      <stop
         offset="0.0397"
         style="stop-color:#06CFF1"
         id="stop66" />
      <stop
         offset="1"
         style="stop-color:#DEFA8E"
         id="stop67" />
    </linearGradient>
    <linearGradient
       id="SVGID_00000047036468184246252980000004989970372658503089_"
       gradientUnits="userSpaceOnUse"
       x1="46.942299"
       y1="178.2074"
       x2="177.68671"
       y2="150.44659"
       gradientTransform="matrix(0.26429229,-0.01214437,0.01214437,0.26429229,-7.1819552,-30.034679)">
      <stop
         offset="0.0397"
         style="stop-color:#06CFF1"
         id="stop68" />
      <stop
         offset="1"
         style="stop-color:#DEFA8E"
         id="stop69" />
    </linearGradient>
    <linearGradient
       id="SVGID_00000023981304809318066210000013805298288606436799_"
       gradientUnits="userSpaceOnUse"
       x1="47.5089"
       y1="180.8719"
       x2="178.2527"
       y2="153.1113"
       gradientTransform="matrix(0.26429229,-0.01214437,0.01214437,0.26429229,-7.1819552,-30.034679)">
      <stop
         offset="0.0397"
         style="stop-color:#06CFF1"
         id="stop70" />
      <stop
         offset="1"
         style="stop-color:#DEFA8E"
         id="stop71" />
    </linearGradient>
    <linearGradient
       id="SVGID_00000124131997143947742240000007839597120978259854_"
       gradientUnits="userSpaceOnUse"
       x1="49.302502"
       y1="189.3295"
       x2="180.0508"
       y2="161.5679"
       gradientTransform="matrix(0.26429229,-0.01214437,0.01214437,0.26429229,-7.1819552,-30.034679)">
      <stop
         offset="0.0397"
         style="stop-color:#06CFF1"
         id="stop72" />
      <stop
         offset="1"
         style="stop-color:#DEFA8E"
         id="stop73" />
    </linearGradient>
    <linearGradient
       id="SVGID_00000121968752465602503590000007690005666911490953_"
       gradientUnits="userSpaceOnUse"
       x1="49.1078"
       y1="188.3958"
       x2="179.85159"
       y2="160.63519"
       gradientTransform="matrix(0.26429229,-0.01214437,0.01214437,0.26429229,-7.1819552,-30.034679)">
      <stop
         offset="0.0397"
         style="stop-color:#06CFF1"
         id="stop74" />
      <stop
         offset="1"
         style="stop-color:#DEFA8E"
         id="stop75" />
    </linearGradient>
    <linearGradient
       id="linearGradient36"
       gradientUnits="userSpaceOnUse"
       x1="44.976002"
       y1="168.9547"
       x2="175.72279"
       y2="141.19341"
       gradientTransform="matrix(0.9989,-0.0459,0.0459,0.9989,-8.1114,5.7791)">
      <stop
         offset="0.0397"
         style="stop-color:#06CFF1"
         id="stop35" />
      <stop
         offset="1"
         style="stop-color:#DEFA8E"
         id="stop36" />
    </linearGradient>
    <linearGradient
       id="linearGradient76"
       gradientUnits="userSpaceOnUse"
       x1="47.184898"
       y1="179.35741"
       x2="177.9328"
       y2="151.5959"
       gradientTransform="matrix(0.9989,-0.0459,0.0459,0.9989,-8.1114,5.7791)">
      <stop
         offset="0.0397"
         style="stop-color:#06CFF1"
         id="stop58" />
      <stop
         offset="1"
         style="stop-color:#DEFA8E"
         id="stop76" />
    </linearGradient>
    <linearGradient
       id="linearGradient78"
       gradientUnits="userSpaceOnUse"
       x1="46.942299"
       y1="178.2074"
       x2="177.68671"
       y2="150.44659"
       gradientTransform="matrix(0.9989,-0.0459,0.0459,0.9989,-8.1114,5.7791)">
      <stop
         offset="0.0397"
         style="stop-color:#06CFF1"
         id="stop77" />
      <stop
         offset="1"
         style="stop-color:#DEFA8E"
         id="stop78" />
    </linearGradient>
    <linearGradient
       id="linearGradient80"
       gradientUnits="userSpaceOnUse"
       x1="47.5089"
       y1="180.8719"
       x2="178.2527"
       y2="153.1113"
       gradientTransform="matrix(0.9989,-0.0459,0.0459,0.9989,-8.1114,5.7791)">
      <stop
         offset="0.0397"
         style="stop-color:#06CFF1"
         id="stop79" />
      <stop
         offset="1"
         style="stop-color:#DEFA8E"
         id="stop80" />
    </linearGradient>
    <linearGradient
       id="linearGradient82"
       gradientUnits="userSpaceOnUse"
       x1="49.302502"
       y1="189.3295"
       x2="180.0508"
       y2="161.5679"
       gradientTransform="matrix(0.9989,-0.0459,0.0459,0.9989,-8.1114,5.7791)">
      <stop
         offset="0.0397"
         style="stop-color:#06CFF1"
         id="stop81" />
      <stop
         offset="1"
         style="stop-color:#DEFA8E"
         id="stop82" />
    </linearGradient>
    <linearGradient
       id="linearGradient84"
       gradientUnits="userSpaceOnUse"
       x1="49.1078"
       y1="188.3958"
       x2="179.85159"
       y2="160.63519"
       gradientTransform="matrix(0.9989,-0.0459,0.0459,0.9989,-8.1114,5.7791)">
      <stop
         offset="0.0397"
         style="stop-color:#06CFF1"
         id="stop83" />
      <stop
         offset="1"
         style="stop-color:#DEFA8E"
         id="stop84" />
    </linearGradient>
    <radialGradient
       id="radialGradient30"
       cx="289.9238"
       cy="225.0789"
       r="17.1784"
       gradientUnits="userSpaceOnUse">
      <stop
         offset="0.1296"
         style="stop-color:#3280FC"
         id="stop29" />
      <stop
         offset="1"
         style="stop-color:#000000"
         id="stop30" />
    </radialGradient>
    <radialGradient
       id="radialGradient22"
       cx="243.0316"
       cy="225.0789"
       r="17.1784"
       gradientUnits="userSpaceOnUse">
      <stop
         offset="0.1296"
         style="stop-color:#3280FC"
         id="stop21" />
      <stop
         offset="1"
         style="stop-color:#000000"
         id="stop22" />
    </radialGradient>
    <linearGradient
       id="linearGradient34"
       gradientUnits="userSpaceOnUse"
       x1="279.45941"
       y1="225.0789"
       x2="300.38821"
       y2="225.0789">
      <stop
         offset="0"
         style="stop-color:#030D14"
         id="stop33" />
      <stop
         offset="1"
         style="stop-color:#0B2F45"
         id="stop34" />
    </linearGradient>
    <linearGradient
       id="linearGradient28"
       gradientUnits="userSpaceOnUse"
       x1="232.5672"
       y1="225.0789"
       x2="253.496"
       y2="225.0789">
      <stop
         offset="0"
         style="stop-color:#030D14"
         id="stop23" />
      <stop
         offset="1"
         style="stop-color:#0B2F45"
         id="stop28" />
    </linearGradient>
  </defs>
  <path
     style="fill:url(#SVGID_1_);stroke-width:0.264583"
     d="m 37.686985,21.37833 c 0,0 0.549012,7.39669 3.627172,9.14242 0,0 -9.88298,-1.70683 -12.313178,-5.40809 -2.430198,-3.70152 8.686006,-3.73433 8.686006,-3.73433 z"
     id="path6" />
  <path
     style="fill:url(#SVGID_00000162336140605741294590000013698265861838273668_);stroke-width:0.264583"
     d="m 47.530807,43.20249 c 6.08992,1.6682 7.52872,1.20121 8.61404,2.83369 0.12462,0.18732 0.76094,1.14511 0.63368,2.37437 -0.1016,0.97948 -0.64717,1.7354 -0.99034,2.06772 -2.08624,2.01956 -7.8269,-0.45112 -11.11461,-3.15331 -0.71676,-0.58923 -2.64002,-2.16958 -2.25267,-3.29221 0.15875,-0.45984 0.65167,-0.68844 1.00542,-0.84667 1.56395,-0.69955 3.18611,-0.23521 4.10448,0.0164 z"
     id="path8" />
  <rect
     x="65.037224"
     y="2.2682831"
     style="fill:url(#SVGID_00000179603758579807138330000017611054551750277518_);stroke-width:0.264583"
     width="1.2961937"
     height="8.505825"
     id="rect10" />
  <path
     style="fill:url(#SVGID_00000154415369398601776150000013611285715959114680_);stroke-width:0.264583"
     d="m 70.161417,15.47257 h -8.95192 c -0.66013,0 -1.19512,-0.53499 -1.19512,-1.19512 V 11.0781 c 0,-0.66013 0.53499,-1.19512 1.19512,-1.19512 h 8.95192 c 0.66013,0 1.19512,0.53499 1.19512,1.19512 v 3.19935 c -2.6e-4,0.66013 -0.53525,1.19512 -1.19512,1.19512 z"
     id="path12" />
  <path
     style="fill:url(#SVGID_00000147902338484093633970000010694665826741577653_);stroke-width:0.264583"
     d="m 85.977937,34.06405 c 0,5.16731 -4.18914,9.35646 -9.35646,9.35646 h -21.87231 c -5.14614,0 -9.35646,-4.21032 -9.35646,-9.35646 v -4.8604 c 0,-9.15591 7.49115,-16.64732 16.64732,-16.64732 h 7.29086 c 9.15591,0 16.64732,7.49115 16.64732,16.64732 v 4.8604 z"
     id="path14" />
  <path
     style="fill:url(#SVGID_00000155120228513843239130000000790490387072230335_);stroke-width:0.264583"
     d="m 79.594337,33.17796 v 0 c -0.53102,0.26246 -1.12633,0.40005 -1.73117,0.40005 h -24.35542 c -0.60484,0 -1.20015,-0.13759 -1.73117,-0.40005 v 0 c -1.3044,-0.64479 -2.04047,-1.94681 -1.85632,-3.28243 l 0.0135,-0.0971 c 0.62415,-4.52411 4.72149,-8.00232 9.74487,-8.26373 2.12539,-0.11059 4.35583,-0.16774 6.68231,-0.15425 1.82245,0.0106 3.58405,0.064 5.28029,0.15134 5.04243,0.25982 9.16993,3.72428 9.79646,8.26558 0.005,0.0325 0.009,0.0654 0.0135,0.0979 0.18388,1.33588 -0.55245,2.6379 -1.85685,3.28269 z"
     id="path16" />
  <circle
     style="fill:url(#SVGID_00000018211886156726300520000014623855983873919901_);stroke-width:0.264583"
     cx="59.266399"
     cy="27.988417"
     r="4.5926375"
     id="circle18" />
  <circle
     style="fill:#eefdff;stroke-width:0.264583"
     cx="59.266399"
     cy="27.988417"
     r="3.2964437"
     id="circle19" />
  <circle
     style="fill:url(#SVGID_00000033362865301656935800000009991999107787559561_);stroke-width:0.264583"
     cx="59.266399"
     cy="27.988417"
     r="2.7686"
     id="circle20" />
  <path
     style="fill:#eefdff;stroke-width:0.264583"
     d="m 61.039904,27.270868 c 0,0.566473 -0.459052,1.025525 -1.025525,1.025525 -0.566473,0 -1.025525,-0.459316 -1.025525,-1.025525 0,-0.566208 0.459052,-1.025525 1.025525,-1.025525 0.566473,0 1.025525,0.459317 1.025525,1.025525 z"
     id="path20" />
  <circle
     style="fill:#eefdff;stroke-width:0.264583"
     cx="58.85709"
     cy="30.1117"
     r="0.40931043"
     id="circle21" />
  <path
     style="fill:#eefdff;stroke-width:0.264583"
     d="m 57.84215,29.497602 c 0,0.112977 -0.09155,0.204523 -0.204523,0.204523 -0.112977,0 -0.204523,-0.09155 -0.204523,-0.204523 0,-0.112977 0.09155,-0.204523 0.204523,-0.204523 0.112977,0 0.204523,0.09181 0.204523,0.204523 z"
     id="path22" />
  <circle
     style="fill:url(#SVGID_00000013879949440216895660000014560071857704914854_);stroke-width:0.264583"
     cx="71.673248"
     cy="27.988417"
     r="4.5926375"
     id="circle25" />
  <circle
     style="fill:#eefdff;stroke-width:0.264583"
     cx="71.673248"
     cy="27.988417"
     r="3.2964437"
     id="circle26" />
  <circle
     style="fill:url(#SVGID_00000062154902142082053850000006219797211032380579_);stroke-width:0.264583"
     cx="71.673248"
     cy="27.988417"
     r="2.7686"
     id="circle27" />
  <path
     style="fill:#eefdff;stroke-width:0.264583"
     d="m 73.44701,27.270868 c 0,0.566473 -0.459317,1.025525 -1.025525,1.025525 -0.566208,0 -1.02579,-0.459316 -1.02579,-1.025525 0,-0.566208 0.459317,-1.025525 1.02579,-1.025525 0.566473,0 1.025525,0.459317 1.025525,1.025525 z"
     id="path27" />
  <circle
     style="fill:#eefdff;stroke-width:0.264583"
     cx="71.263939"
     cy="30.1117"
     r="0.40931043"
     id="circle28" />
  <path
     style="fill:#eefdff;stroke-width:0.264583"
     d="m 70.248991,29.497602 c 0,0.112977 -0.09155,0.204523 -0.204523,0.204523 -0.112977,0 -0.204523,-0.09155 -0.204523,-0.204523 0,-0.112977 0.09155,-0.204523 0.204523,-0.204523 0.112977,0 0.204523,0.09181 0.204523,0.204523 z"
     id="path29" />
  <path
     style="fill:url(#SVGID_00000088120625222993170300000018402538022134391970_);stroke-width:0.264583"
     d="m 67.345987,1.70127 c 0,0.91705 -0.74348,1.66079 -1.66079,1.66079 -0.91705,0 -1.66053,-0.74348 -1.66053,-1.66079 0,-0.91705 0.74348,-1.66079 1.66053,-1.66079 0.91731,0 1.66079,0.74348 1.66079,1.66079 z"
     id="path32" />
  <path
     style="fill:#ffffff;stroke-width:0.264583"
     d="m 66.839837,1.05304 c 0,0.27967 -0.22675,0.50615 -0.50641,0.50615 -0.27967,0 -0.50642,-0.22675 -0.50642,-0.50615 0,-0.27966 0.22675,-0.50641 0.50642,-0.50641 0.27966,2.6e-4 0.50641,0.22675 0.50641,0.50641 z"
     id="path33" />
  <path
     style="fill:#ffffff;stroke-width:0.264583"
     d="m 79.984597,17.88107 c 0.022,0.77523 -0.61092,1.70259 -1.33588,1.7817 -0.67945,0.0743 -1.22211,-0.61991 -1.7817,-1.33588 -0.55166,-0.70564 -1.75789,-2.51857 -1.27741,-3.03133 0.63315,-0.67601 4.34287,0.75645 4.39499,2.58551 z"
     id="path34" />
  <circle
     style="fill:#ffffff;stroke-width:0.264583"
     cx="73.776939"
     cy="14.348613"
     r="0.57705623"
     id="circle34" />
  <path
     style="fill:#ffffff;stroke-width:0.264583"
     d="m 79.902317,28.63585 c -0.18521,0.13071 -1.47611,-2.49925 -4.94163,-4.77943 -1.21814,-0.80169 -2.42067,-1.37292 -2.34923,-1.53908 0.0725,-0.16854 1.4269,0.14499 2.51116,0.64796 3.45493,1.60285 4.99983,5.51524 4.7797,5.67055 z"
     id="path35" />
  <path
     style="fill:#ffffff;stroke-width:0.264583"
     d="m 71.028187,11.53769 c -0.0413,0.006 -0.0677,-0.23681 -0.26987,-0.61172 0,0 -0.0945,-0.17542 -0.20241,-0.32412 -0.34793,-0.47889 -1.52744,-0.46831 -1.62004,-0.46751 -1.837,0.0159 -3.0181,-0.10055 -3.01758,-0.0894 2.7e-4,0.009 0.86175,-0.008 1.49305,-0.0209 1.78091,-0.0362 2.84189,-0.13202 3.29671,0.34502 0.18864,0.19791 0.28363,0.45561 0.28363,0.45561 0.12859,0.34978 0.0857,0.70591 0.0365,0.71306 z"
     id="path36" />
  <path
     style="fill:#eefdff;stroke-width:0.264583"
     d="m 70.646127,35.54889 c -0.045,0.44 -0.41116,0.77893 -0.85143,0.82126 l -6.08382,0.58658 c -0.44001,0.0423 -0.8644,-0.21986 -0.99272,-0.6432 -0.0572,-0.18812 -0.10107,-0.38206 -0.13097,-0.58155 -0.008,-0.055 0.006,-0.11113 0.0408,-0.15531 0.0344,-0.0439 0.0852,-0.0717 0.14075,-0.0773 l 7.6753,-0.7403 c 0.0548,-0.005 0.10901,0.0122 0.15055,0.0481 0.0415,0.036 0.0661,0.0876 0.0685,0.14235 0.009,0.20293 0.003,0.40296 -0.0169,0.59928 z"
     id="path37" />
  <path
     style="fill:url(#SVGID_00000085215910500040245870000003427998582676835513_);stroke-width:0.264583"
     d="m 70.646397,35.54942 c -0.19447,1.88595 -1.69386,3.4364 -3.65257,3.62346 -1.93199,0.18707 -3.67692,-1.01097 -4.25054,-2.785 0.1532,0.37915 0.55166,0.61013 0.96732,0.56859 l 6.08542,-0.58579 c 0.43974,-0.0437 0.80433,-0.38153 0.85037,-0.82126 z"
     id="path38" />
  <path
     style="fill:url(#SVGID_00000114774809475665888460000004890406981806392244_);stroke-width:0.264583"
     d="m 80.231717,49.21329 c 0,0.0558 0,0.10928 -0.002,0.16034 -0.0193,0.51038 -0.13864,0.89429 -0.19685,1.0668 -1.67455,5.11572 -2.67811,7.81341 -4.08516,9.99569 -0.24289,0.37677 -0.49821,0.73872 -0.77285,1.09353 -0.35957,0.47387 -0.75327,0.93556 -1.19089,1.41208 -0.97208,1.05727 -2.44237,1.5359 -2.91624,1.70127 -1.73276,0.61251 -3.2639,0.50059 -4.28202,0.51038 h -0.17753 c -1.02076,-0.01 -2.54926,0.10213 -4.28202,-0.51038 -0.47387,-0.16537 -1.94654,-0.644 -2.91624,-1.70127 -2.67335,-2.9091 -3.70125,-5.32712 -6.0489,-12.5013 -0.0558,-0.1651 -0.16775,-0.52255 -0.19447,-1.00118 -0.007,-0.13864 -0.01,-0.27702 -0.002,-0.41566 0.0511,-0.85778 0.39846,-1.69889 1.016,-2.46671 1.05728,-1.3171 2.69028,-2.03888 4.37938,-2.04629 l 8.13885,-0.0341 7.99068,-0.0315 c 1.72562,-0.007 3.39752,0.71702 4.49342,2.05105 0.52996,0.64638 0.86757,1.34382 0.99166,2.06322 0.0169,0.10213 0.0315,0.20664 0.0413,0.30877 0.009,0.1143 0.0167,0.2286 0.0167,0.34528 z"
     id="path47" />
  <path
     style="fill:url(#SVGID_00000138534491986264145230000009194552508848950150_);stroke-width:0.264583"
     d="m 66.696427,44.47778 -8.13884,0.0341 c -1.6891,0.007 -3.32211,0.72919 -4.37939,2.04629 -0.61727,0.76808 -0.96467,1.60893 -1.016,2.46671 0.0413,-0.87974 0.40349,-1.74255 1.04749,-2.52756 1.09352,-1.3343 2.76807,-2.05846 4.49342,-2.05105 z"
     id="path49" />
  <path
     style="fill:url(#SVGID_00000148650961268395584350000012783459194915067324_);stroke-width:0.264583"
     d="m 74.785537,56.46843 c -0.1188,-6.31322 -0.97314,-7.56179 0.28681,-9.06356 0.14473,-0.17251 0.88371,-1.05331 2.09894,-1.27821 0.96837,-0.17912 1.84732,0.13097 2.26324,0.36645 2.52625,1.43113 1.77668,7.63588 0.11245,11.55277 -0.36274,0.85407 -1.33614,3.1451 -2.52254,3.09033 -0.48604,-0.0225 -0.84455,-0.431 -1.0959,-0.72549 -1.11257,-1.30307 -1.12501,-2.99058 -1.143,-3.94229 z"
     id="path55" />
  <path
     style="fill:url(#SVGID_00000142147404709463399300000014273441360181628339_);stroke-width:0.264583"
     d="m 75.947057,60.43612 c -0.24289,0.37677 -0.49821,0.73872 -0.77285,1.09353 -0.0876,-0.09 -0.16536,-0.17992 -0.23574,-0.26247 -1.1131,-1.30254 -1.12527,-2.98926 -1.14221,-3.94176 -0.11906,-6.31375 -0.97446,-7.56047 0.28681,-9.06251 0.0923,-0.11165 0.43021,-0.51276 0.97949,-0.84561 -1.24434,1.49701 -0.39608,2.7559 -0.27702,9.05034 0.0169,0.9525 0.0315,2.63922 1.14221,3.94441 0.007,0.007 0.0146,0.0143 0.0193,0.0241 z"
     id="path57" />
  <path
     style="fill:#ffffff;stroke-width:0.264583"
     d="m 79.509677,51.21116 c -0.0357,-0.67839 -0.16299,-1.17713 -0.41752,-2.17514 -0.33284,-1.30545 -0.75036,-1.94177 -0.47916,-2.19392 0.17648,-0.16404 0.52414,-0.0532 0.60299,-0.0281 1.19327,0.38074 1.56263,2.61938 1.5113,4.02035 -0.0315,0.85777 -0.24077,1.81689 -0.5551,1.85922 -0.0495,0.007 -0.17277,2.7e-4 -0.26088,-0.0778 -0.35083,-0.30982 -0.37438,-0.889 -0.40163,-1.40467 z"
     id="path58" />
  <path
     style="fill:#ffffff;stroke-width:0.264583"
     d="m 80.329087,53.60538 c 0,0.13679 -0.11086,0.24765 -0.24765,0.24765 -0.13679,0 -0.24765,-0.11086 -0.24765,-0.24765 0,-0.13679 0.11086,-0.24765 0.24765,-0.24765 0.13679,0 0.24765,0.11086 0.24765,0.24765 z"
     id="path59" />
  <ellipse
     style="fill:url(#SVGID_00000005989100045373852490000015507407940870264481_);stroke-width:0.264583"
     cx="66.333427"
     cy="71.24144"
     rx="12.983104"
     ry="5.3152146"
     id="ellipse60" />
  <path
     style="fill:url(#SVGID_00000080904704391898222810000005549099685581539727_);stroke-width:0.264583"
     d="M 30.29929,25.11266 H 12.556332 C 5.650442,25.11266 9.9999999e-7,19.46222 9.9999999e-7,12.55633 v 0 C 9.9999999e-7,5.65044 5.650442,0 12.556332,0 H 30.29929 c 6.905889,0 12.556327,5.65044 12.556327,12.55633 v 0 c 0,6.90589 -5.650173,12.55633 -12.556327,12.55633 z"
     id="path63" />
  <path
     style="fill:url(#SVGID_00000121999812026972802600000007268796830394815665_);stroke-width:0.264583"
     d="m 13.469144,17.361164 c 0.0066,0.144463 -0.419364,0.236273 -1.277408,0.275961 -0.858309,0.03942 -1.290638,-0.01297 -1.297252,-0.157427 l -0.134673,-2.931584 -1.7843502,0.08202 0.1346729,2.931583 c 0.00661,0.144463 -0.4191,0.236538 -1.2774083,0.275961 -0.8583083,0.03942 -1.2906375,-0.01297 -1.297252,-0.157427 L 6.147065,9.2297248 C 6.138865,9.0513957 6.5637838,8.9423873 7.4220921,8.9029644 8.2804004,8.8635414 8.7135233,8.9331264 8.7217254,9.1114561 l 0.1375833,2.9953479 1.7846143,-0.08202 -0.136525,-2.9696832 c -0.0056,-0.1190625 0.202936,-0.2137833 0.625475,-0.2841625 0.220134,-0.026988 0.436298,-0.045508 0.649023,-0.055298 l 0.65114,-0.0045 c 0.427302,0.031485 0.643731,0.1066271 0.649023,0.2256896 z"
     id="path65" />
  <path
     style="fill:url(#SVGID_00000106859313843583722360000003614503126173023656_);stroke-width:0.264583"
     d="m 19.491854,16.956352 c -0.520964,0.338931 -1.202002,0.527844 -2.043112,0.566473 -0.84111,0.03863 -1.563952,-0.215636 -2.167996,-0.762529 -0.604308,-0.546894 -0.929746,-1.327944 -0.976312,-2.343415 -0.04657,-1.015206 0.193939,-1.845998 0.722048,-2.49211 0.527843,-0.645848 1.216818,-0.988484 2.06666,-1.027377 0.849577,-0.03916 1.515798,0.147372 1.998927,0.559593 0.483129,0.412221 0.738717,0.928423 0.767292,1.548607 0.06323,1.376627 -0.695325,2.101056 -2.275682,2.173816 l -0.879475,0.04048 c 0.01164,0.255059 0.08996,0.428096 0.234421,0.519377 0.144727,0.09128 0.352954,0.130705 0.624946,0.118005 0.594783,-0.02725 1.153583,-0.189177 1.6764,-0.485775 0.0079,-0.0087 0.04895,0.04868 0.122767,0.173037 0.220662,0.356129 0.336814,0.659342 0.348456,0.909902 0.01191,0.25109 -0.06165,0.418306 -0.21934,0.501915 z m -1.762389,-3.61024 c -0.0164,-0.356923 -0.198967,-0.527314 -0.547158,-0.511175 -0.161661,0.0074 -0.297392,0.06271 -0.407459,0.165629 -0.110331,0.103188 -0.161131,0.24818 -0.1524,0.434975 l 0.01826,0.395023 0.688182,-0.03175 c 0.280193,-0.0127 0.413808,-0.163512 0.400579,-0.452702 z"
     id="path67" />
  <path
     style="fill:url(#SVGID_00000047036468184246252980000004989970372658503089_);stroke-width:0.264583"
     d="m 23.199196,17.028848 c 0.0034,0.07646 -0.428096,0.134673 -1.294871,0.17436 -0.680243,0.02275 -1.021556,0.0045 -1.024466,-0.05503 L 20.480867,8.468254 c -0.0058,-0.1275292 0.403225,-0.2100792 1.227667,-0.2479146 0.723106,-0.00767 1.086379,0.018256 1.089289,0.077523 z"
     id="path69" />
  <path
     style="fill:url(#SVGID_00000023981304809318066210000013805298288606436799_);stroke-width:0.264583"
     d="m 26.665767,16.869568 c 0.0034,0.07646 -0.428096,0.134673 -1.294871,0.174361 -0.680244,0.02275 -1.021556,0.0045 -1.024467,-0.05503 L 23.947438,8.3089748 c -0.0058,-0.1275291 0.403225,-0.2100791 1.227666,-0.2479145 0.723371,-0.00767 1.08638,0.018256 1.08929,0.077787 z"
     id="path71" />
  <path
     style="fill:url(#SVGID_00000124131997143947742240000007839597120978259854_);stroke-width:0.264583"
     d="m 28.337404,16.141171 c -0.558006,-0.561975 -0.860954,-1.361017 -0.908579,-2.397919 -0.04763,-1.036638 0.180711,-1.860286 0.684742,-2.470944 0.504031,-0.610658 1.2065,-0.936889 2.107141,-0.978164 0.900642,-0.04127 1.627982,0.219075 2.181755,0.78105 0.553773,0.561975 0.854604,1.361545 0.902229,2.398183 0.04762,1.036902 -0.178594,1.860285 -0.678392,2.470679 -0.500062,0.610394 -1.200414,0.936625 -2.100792,0.9779 -0.900641,0.04127 -1.630097,-0.21881 -2.188104,-0.780785 z m 1.98755,-3.718719 c -0.480218,0.02196 -0.702204,0.424127 -0.666221,1.205706 0.03598,0.781844 0.293953,1.161521 0.773907,1.13956 0.479954,-0.02196 0.702204,-0.423862 0.666221,-1.205706 -0.03572,-0.781843 -0.293953,-1.161785 -0.773907,-1.13956 z"
     id="path73" />
  <path
     style="fill:url(#SVGID_00000121968752465602503590000007690005666911490953_);stroke-width:0.264583"
     d="m 34.267775,14.706335 c -0.0026,-0.05953 0.388938,-0.107421 1.175015,-0.143404 0.785812,-0.03625 1.180041,-0.02884 1.182423,0.02222 l 0.0844,1.835415 c 0.004,0.0852 -0.38735,0.14552 -1.173163,0.181768 -0.786077,0.03625 -1.180306,0.02858 -1.182423,-0.02223 z m 2.067983,-0.861483 c 0.0024,0.05106 -0.300302,0.09049 -0.907785,0.118269 -0.607748,0.02805 -0.912283,0.0209 -0.9144,-0.0217 L 33.969854,7.6694769 c -0.0032,-0.067733 0.383911,-0.1198562 1.161521,-0.155575 0.777346,-0.035719 1.167606,-0.023813 1.170252,0.035719 z"
     id="path75" />
  <path
     style="fill:#ffffff;stroke-width:0.264583"
     d="m 36.011644,12.62777 c 0,0 -0.502444,-4.55057 -0.252677,-4.67466 0.249766,-0.12382 0.368564,2.36167 0.252677,4.67466 z"
     id="path76" />
  <path
     style="fill:#ffffff;stroke-width:0.264583"
     d="m 36.50959,14.92567 c 0,0.15108 -0.122502,0.27332 -0.273315,0.27332 -0.151077,0 -0.273315,-0.1225 -0.273315,-0.27332 0,-0.15107 0.122503,-0.27331 0.273315,-0.27331 0.150813,0 0.273315,0.1225 0.273315,0.27331 z"
     id="path77" />
  <path
     style="fill:#ffffff;stroke-width:0.264583"
     d="m 32.929248,12.93283 c 0.0016,-0.25373 -0.02884,-0.9771 -0.554037,-1.56342 -0.451644,-0.50403 -1.055688,-0.6686 -1.33059,-0.63659 -0.05239,0.006 -0.230188,0.0368 -0.241829,0.11113 -0.02408,0.15372 0.702204,0.26114 1.245394,0.66834 0.304006,0.22754 0.664368,0.63447 0.881062,1.42054 z"
     id="path78" />
  <path
     style="fill:#ffffff;stroke-width:0.264583"
     d="m 25.859317,8.22034 c 0.279135,-0.003 0.385498,5.10064 0.304271,6.02377 -0.08123,0.92313 -0.416719,-6.02271 -0.304271,-6.02377 z"
     id="path79" />
  <path
     style="fill:#ffffff;stroke-width:0.264583"
     d="m 19.546094,12.58993 c -0.122237,-0.69003 -0.909902,-1.46473 -1.401498,-1.34355 -0.49186,0.12118 0.582613,0.49424 0.967846,0.82709 0.384969,0.33311 0.433652,0.51646 0.433652,0.51646 z"
     id="path80" />
  <path
     style="fill:#ffffff;stroke-width:0.264583"
     d="m 15.229682,16.52032 c 0.571235,0.63341 1.38721,0.75565 1.398587,0.72866 0.01217,-0.0283 -0.893498,-0.14975 -1.369748,-0.87683 -0.224102,-0.34184 -0.446087,-0.95938 -0.593725,-0.95964 -0.0034,0 -0.0093,2.6e-4 -0.01455,0.004 -0.07567,0.0548 0.213519,0.69797 0.579438,1.10358 z"
     id="path81" />
  <path
     style="fill:#ffffff;stroke-width:0.264583"
     d="m 13.137886,16.39147 c -0.182298,0.25029 -0.20664,-6.18993 -0.323321,-6.81937 0,0 0,0 0,-0.0413 -0.0024,-0.0413 -0.0048,-0.12382 -0.0074,-0.28919 -5.3e-4,-0.0365 -0.0344,-0.16272 -0.0635,-0.18918 -0.238655,-0.2159 -1.287463,-0.10715 -0.840317,-0.16563 0.395023,-0.0516 0.8509,-0.013 0.967052,0.0288 0.0508,0.0183 0.05371,0.11695 0.06588,0.15346 0.228336,1.27582 0.4445,6.99188 0.201613,7.32235 z"
     id="path82" />
</svg>
