<?xml version="1.0" encoding="UTF-8" standalone="no"?>
<!-- Created with Inkscape (http://www.inkscape.org/) -->

<svg
   width="118.85963mm"
   height="63.223225mm"
   viewBox="0 0 118.85963 63.223225"
   version="1.1"
   id="svg1"
   sodipodi:docname="insights.svg"
   inkscape:version="1.3.2 (091e20e, 2023-11-25, custom)"
   xmlns:inkscape="http://www.inkscape.org/namespaces/inkscape"
   xmlns:sodipodi="http://sodipodi.sourceforge.net/DTD/sodipodi-0.dtd"
   xmlns="http://www.w3.org/2000/svg"
   xmlns:svg="http://www.w3.org/2000/svg">
  <sodipodi:namedview
     id="namedview1"
     pagecolor="#ffffff"
     bordercolor="#000000"
     borderopacity="0.25"
     inkscape:showpageshadow="2"
     inkscape:pageopacity="0.0"
     inkscape:pagecheckerboard="0"
     inkscape:deskcolor="#d1d1d1"
     inkscape:document-units="mm"
     inkscape:zoom="1.8275585"
     inkscape:cx="224.61662"
     inkscape:cy="119.55842"
     inkscape:window-width="1920"
     inkscape:window-height="1057"
     inkscape:window-x="-8"
     inkscape:window-y="-8"
     inkscape:window-maximized="1"
     inkscape:current-layer="svg1" />
  <defs
     id="defs1" />
  <g
     id="layer1"
     transform="translate(-62.277067,-117.02426)">
    <path
       style="fill:#ffffff;stroke-width:0.395392"
       d="M 180.34591,180.24747 H 63.067851 c -0.436908,0 -0.790785,-0.35428 -0.790785,-0.79079 v -61.64164 c 0,-0.43692 0.353877,-0.79079 0.790785,-0.79079 H 180.34591 c 0.43692,0 0.79079,0.35387 0.79079,0.79079 v 61.64164 c 0,0.4369 -0.35387,0.79079 -0.79079,0.79079 z"
       id="path25" />
    <rect
       x="67.564644"
       y="127.82953"
       style="fill:none;stroke:#d6d6d6;stroke-width:0.395392;stroke-miterlimit:10"
       width="106.90496"
       height="45.980553"
       id="rect26" />
    <line
       style="fill:none;stroke:#d6d6d6;stroke-width:0.395392;stroke-miterlimit:10"
       x1="67.564644"
       y1="131.96771"
       x2="174.4696"
       y2="131.96771"
       id="line26" />
    <line
       style="fill:none;stroke:#d6d6d6;stroke-width:0.395392;stroke-miterlimit:10"
       x1="67.564644"
       y1="136.62344"
       x2="174.4696"
       y2="136.62344"
       id="line27" />
    <line
       style="fill:none;stroke:#d6d6d6;stroke-width:0.395392;stroke-miterlimit:10"
       x1="67.564644"
       y1="141.27879"
       x2="174.4696"
       y2="141.27879"
       id="line28" />
    <line
       style="fill:none;stroke:#d6d6d6;stroke-width:0.395392;stroke-miterlimit:10"
       x1="67.564644"
       y1="145.93454"
       x2="174.4696"
       y2="145.93454"
       id="line29" />
    <line
       style="fill:none;stroke:#d6d6d6;stroke-width:0.395392;stroke-miterlimit:10"
       x1="67.564644"
       y1="150.58989"
       x2="174.4696"
       y2="150.58989"
       id="line30" />
    <line
       style="fill:none;stroke:#d6d6d6;stroke-width:0.395392;stroke-miterlimit:10"
       x1="67.564644"
       y1="155.24564"
       x2="174.4696"
       y2="155.24564"
       id="line31" />
    <line
       style="fill:none;stroke:#d6d6d6;stroke-width:0.395392;stroke-miterlimit:10"
       x1="67.564644"
       y1="159.90097"
       x2="174.4696"
       y2="159.90097"
       id="line32" />
    <line
       style="fill:none;stroke:#d6d6d6;stroke-width:0.395392;stroke-miterlimit:10"
       x1="67.564644"
       y1="164.55672"
       x2="174.4696"
       y2="164.55672"
       id="line33" />
    <line
       style="fill:none;stroke:#d6d6d6;stroke-width:0.395392;stroke-miterlimit:10"
       x1="67.564644"
       y1="169.21207"
       x2="174.4696"
       y2="169.21207"
       id="line34" />
    <rect
       x="-161.12076"
       y="-173.698"
       transform="scale(-1)"
       style="fill:#728bcb;stroke-width:0.395392"
       width="6.0578036"
       height="51.659573"
       id="rect35" />
    <rect
       x="-146.05209"
       y="-173.69818"
       transform="scale(-1)"
       style="fill:#ff6545;stroke-width:0.395392"
       width="6.0578036"
       height="44.618031"
       id="rect36" />
    <rect
       x="-130.98381"
       y="-173.69818"
       transform="scale(-1)"
       style="fill:#b2b661;stroke-width:0.395392"
       width="6.0578036"
       height="39.899422"
       id="rect37" />
    <rect
       x="-115.91513"
       y="-173.69827"
       transform="scale(-1)"
       style="fill:#728bcb;stroke-width:0.395392"
       width="6.0578036"
       height="31.656681"
       id="rect38" />
    <rect
       x="-100.8465"
       y="-173.6983"
       transform="scale(-1)"
       style="fill:#f1a24c;stroke-width:0.395392"
       width="6.0578036"
       height="23.014198"
       id="rect39" />
    <rect
       x="-85.778221"
       y="-173.6983"
       transform="scale(-1)"
       style="fill:#ff6447;stroke-width:0.395392"
       width="6.0578036"
       height="12.484113"
       id="rect40" />
    <polygon
       style="fill:#ff6545"
       points="276.749,264.456 302.363,230.622 325.575,230.622 351.189,196.788 384.37,196.788 394.86,180.38 429.991,180.38 435.336,174.243 436.93,177.52 440.372,167.039 430.463,171.888 433.928,173.016 429.141,178.512 393.836,178.512 383.347,194.921 350.26,194.921 324.647,228.755 301.434,228.755 275.82,262.588 249.47,262.588 249.47,264.456 "
       id="polygon40"
       transform="matrix(0.39539218,0,0,0.39539218,-23.819975,52.260992)" />
  </g>
</svg>
