<?xml version="1.0" encoding="UTF-8" standalone="no"?>
<!-- Created with Inkscape (http://www.inkscape.org/) -->

<svg
   width="73.589455mm"
   height="64.811455mm"
   viewBox="0 0 73.589455 64.811454"
   version="1.1"
   id="svg1"
   xml:space="preserve"
   sodipodi:docname="predictionsvg.svg"
   inkscape:version="1.3.2 (091e20e, 2023-11-25, custom)"
   xmlns:inkscape="http://www.inkscape.org/namespaces/inkscape"
   xmlns:sodipodi="http://sodipodi.sourceforge.net/DTD/sodipodi-0.dtd"
   xmlns:xlink="http://www.w3.org/1999/xlink"
   xmlns="http://www.w3.org/2000/svg"
   xmlns:svg="http://www.w3.org/2000/svg"><sodipodi:namedview
     id="namedview1"
     pagecolor="#ffffff"
     bordercolor="#000000"
     borderopacity="0.25"
     inkscape:showpageshadow="2"
     inkscape:pageopacity="0.0"
     inkscape:pagecheckerboard="0"
     inkscape:deskcolor="#d1d1d1"
     inkscape:document-units="mm"
     inkscape:zoom="4.9708295"
     inkscape:cx="136.19457"
     inkscape:cy="241.71016"
     inkscape:window-width="1920"
     inkscape:window-height="1057"
     inkscape:window-x="-8"
     inkscape:window-y="-8"
     inkscape:window-maximized="1"
     inkscape:current-layer="layer1" /><defs
     id="defs1"><linearGradient
       id="linearGradient1"><stop
         style="stop-color:#00f5ff;stop-opacity:0.41491842;"
         offset="0"
         id="stop1" /><stop
         style="stop-color:#ffb300;stop-opacity:0.51748252;"
         offset="0.5"
         id="stop3" /><stop
         style="stop-color:#00ff15;stop-opacity:0.40326339;"
         offset="1"
         id="stop2" /></linearGradient><linearGradient
       xlink:href="#linearGradient1"
       id="linearGradient2"
       x1="52.604355"
       y1="101.80257"
       x2="89.772629"
       y2="101.80257"
       gradientUnits="userSpaceOnUse" /></defs><g
     id="layer1"
     transform="translate(-34.255119,-42.380965)"><path
       style="fill:#bfbfbf;fill-opacity:1;stroke:#8fff00;stroke-width:0;stroke-linejoin:round"
       d="m 41.57846,63.772341 2.312944,-0.04132 v 17.760113 l -2.189039,-0.04132 z"
       id="path6" /><path
       id="path1-8"
       style="fill:#14ff00;fill-opacity:1;stroke:#8fff00;stroke-width:0;stroke-linejoin:round"
       d="m 44.682346,42.380965 c 0,0 -8.937002,9.7e-5 -9.579516,0.0293 -0.642518,0.02921 -0.84704,0.876069 -0.84704,0.876069 0,0 0.02921,19.100182 0,20.093162 -0.02921,0.992981 0.905372,1.168274 0.905372,1.168274 0,0 15.566511,-0.05843 16.121413,-0.08763 0.5549,-0.02921 0.788706,-0.846767 0.788706,-0.846767 l -0.0586,-10.280318 -2.161007,0.116664 v 8.907746 l -13.405301,-0.05833 0.02903,-17.844522 6.658833,0.02903 c 0,0 -0.02903,4.964918 -0.02903,5.753461 0,0.788544 0.934402,0.963975 0.934402,0.963975 0,0 5.549085,-0.117015 6.921735,-0.0586 1.43106,-0.146027 0.934672,-1.723108 0.934672,-1.723108 z m 0.627818,3.735165 2.808361,2.89111 -2.828981,-0.04124 z" /><path
       style="fill:#9fff9b;fill-opacity:1;stroke:#8fff00;stroke-width:0;stroke-linejoin:round"
       d="m 37.784344,52.704183 10.647845,0.01631 0.07052,1.223212 -10.683101,0.01631 z"
       id="path2" /><path
       style="fill:#9fff9b;fill-opacity:1;stroke:#8fff00;stroke-width:0;stroke-linejoin:round"
       d="m 37.725933,55.04061 10.647844,0.01631 0.07052,1.223212 -10.683101,0.01631 z"
       id="path3" /><path
       style="fill:#9fff9b;fill-opacity:1;stroke:#8fff00;stroke-width:0;stroke-linejoin:round"
       d="m 37.767236,57.43616 10.647844,0.01631 0.07052,1.223211 -10.683101,0.01631 z"
       id="path4" /><path
       style="fill:#9fff9b;fill-opacity:1;stroke:#8fff00;stroke-width:0;stroke-linejoin:round"
       d="m 37.68463,59.625197 10.647845,0.01631 0.07051,1.223211 -10.6831,0.01631 z"
       id="path5" /><path
       style="fill:#bfbfbf;fill-opacity:1;stroke:#8fff00;stroke-width:0;stroke-linejoin:round"
       d="m 72.312171,62.889502 -2.31295,-0.01331 v 5.722395 l 2.189039,-0.01332 z"
       id="path8" /><path
       id="path1-8-0"
       style="fill:#ffa000;fill-opacity:1;stroke:#8fff00;stroke-width:0;stroke-linejoin:round"
       d="m 72.510482,42.536034 c 0,0 -8.936999,9.4e-5 -9.579517,0.0293 -0.642517,0.02919 -0.847038,0.876068 -0.847038,0.876068 0,0 0.02919,19.100183 0,20.093164 -0.02919,0.99298 0.905374,1.168275 0.905374,1.168275 0,0 15.566506,-0.05843 16.121408,-0.08764 0.554901,-0.02919 0.788704,-0.846767 0.788704,-0.846767 l -0.0586,-10.280319 -2.161003,0.116665 v 8.907748 l -13.405298,-0.05834 0.02903,-17.844518 6.658827,0.02903 c 0,0 -0.02903,4.964917 -0.02903,5.753459 0,0.788542 0.934403,0.963973 0.934403,0.963973 0,0 5.549084,-0.117012 6.921735,-0.0586 1.431059,-0.146024 0.934671,-1.723108 0.934671,-1.723108 z m 0.627817,3.735162 2.808361,2.89111 -2.828979,-0.04127 z" /><path
       style="fill:#ffc85d;fill-opacity:1;stroke:#8fff00;stroke-width:0;stroke-linejoin:round"
       d="m 65.612481,52.859252 10.647844,0.01633 0.07052,1.223208 -10.683098,0.01633 z"
       id="path2-3" /><path
       style="fill:#ffc85d;fill-opacity:1;stroke:#8fff00;stroke-width:0;stroke-linejoin:round"
       d="m 65.554067,55.195676 10.647844,0.01633 0.07052,1.223214 -10.683098,0.01633 z"
       id="path3-8" /><path
       style="fill:#ffc85d;fill-opacity:1;stroke:#8fff00;stroke-width:0;stroke-linejoin:round"
       d="m 65.595371,57.591228 10.647843,0.01633 0.07052,1.223213 -10.683099,0.01628 z"
       id="path4-0" /><path
       style="fill:#ffc85d;fill-opacity:1;stroke:#8fff00;stroke-width:0;stroke-linejoin:round"
       d="m 65.512769,59.780262 10.647838,0.01633 0.07052,1.223214 -10.683099,0.01633 z"
       id="path5-7" /><path
       style="fill:#bfbfbf;fill-opacity:1;stroke:#8fff00;stroke-width:0;stroke-linejoin:round"
       d="m 99.981809,63.672547 -2.312945,-0.04132 v 17.760111 l 2.189039,-0.04132 z"
       id="path6-8" /><path
       id="path1-8-4"
       style="fill:#00d3ff;fill-opacity:1;stroke:#8fff00;stroke-width:0;stroke-linejoin:round"
       d="m 100.45564,43.041823 c 0,0 -8.937006,9.7e-5 -9.579523,0.0293 -0.642517,0.02921 -0.84704,0.876069 -0.84704,0.876069 0,0 0.02919,19.100183 0,20.093163 -0.02919,0.992981 0.905375,1.168274 0.905375,1.168274 0,0 15.566508,-0.05843 16.121408,-0.08763 0.5549,-0.02921 0.78871,-0.846767 0.78871,-0.846767 l -0.0586,-10.280319 -2.161,0.116665 v 8.907745 l -13.4053,-0.05833 0.02903,-17.844522 6.658829,0.02903 c 0,0 -0.02903,4.964919 -0.02903,5.753462 0,0.788544 0.934403,0.963975 0.934403,0.963975 0,0 5.549088,-0.117015 6.921738,-0.0586 1.43106,-0.146028 0.93467,-1.723109 0.93467,-1.723109 z m 0.62781,3.735166 2.80836,2.89111 -2.82898,-0.04124 z" /><path
       style="fill:#7ee9ff;fill-opacity:1;stroke:#8fff00;stroke-width:0;stroke-linejoin:round"
       d="m 93.557633,53.365042 10.647847,0.01631 0.0705,1.223211 -10.683102,0.01631 z"
       id="path2-6" /><path
       style="fill:#7ee9ff;fill-opacity:1;stroke:#8fff00;stroke-width:0;stroke-linejoin:round"
       d="m 93.499219,55.701469 10.647841,0.01631 0.0705,1.223211 -10.683101,0.01631 z"
       id="path3-4" /><path
       style="fill:#7ee9ff;fill-opacity:1;stroke:#8fff00;stroke-width:0;stroke-linejoin:round"
       d="m 93.540522,58.097018 10.647848,0.01631 0.0705,1.223211 -10.683097,0.01631 z"
       id="path4-9" /><path
       style="fill:#7ee9ff;fill-opacity:1;stroke:#8fff00;stroke-width:0;stroke-linejoin:round"
       d="m 93.457915,60.286055 10.647845,0.01631 0.0705,1.223211 -10.683104,0.01631 z"
       id="path5-1" /><path
       style="fill:#bfbfbf;fill-opacity:1;stroke:#8fff00;stroke-width:0;stroke-linejoin:round"
       d="m 57.768551,77.551555 1.664704,-1.606291 3.241794,3.358611 c 0,0 0.730133,0.934572 -0.02919,1.723114 -0.75934,0.788547 -3.32941,3.241794 -3.32941,3.241794 l -1.460266,-1.577089 1.51868,-1.43106 -0.05841,-2.190399 z"
       id="path7" /><path
       style="fill:#bfbfbf;fill-opacity:1;stroke:#8fff00;stroke-width:0;stroke-linejoin:round"
       d="m 59.457916,79.151582 0.04132,2.312945 h -17.76011 l 0.04132,-2.189039 z"
       id="path1" /><g
       style="fill:#72fff4;fill-opacity:1"
       id="g1"
       transform="matrix(0.07604165,0,0,0.07604165,63.331442,72.035188)"><path
         d="m 55.7171,33.8312 c -11.7653,0 -21.3031,9.5375 -21.3031,21.3029 0,11.7653 9.5376,21.3029 21.3029,21.3029 11.7652,0 21.3028,-9.5374 21.303,-21.3023 C 77.0081,43.374 67.4778,33.8433 55.7185,33.8314 h -10e-4 z m 0,26.9075 c -3.0956,0 -5.605,-2.5094 -5.605,-5.6048 0,-3.0955 2.5094,-5.6048 5.6048,-5.6048 3.0955,0 5.6049,2.5091 5.6049,5.6046 -0.004,3.0941 -2.5108,5.6011 -5.6043,5.6046 h -4e-4 z M 180.836,115.265 h -1.658 l 1.179,-1.165 c 1.789,-1.778 3.027,-4.108 3.437,-6.713 l 0.009,-0.069 c 0.08,-0.479 0.126,-1.031 0.126,-1.594 0,-2.787 -1.12,-5.313 -2.935,-7.1509 L 169.638,87.2175 c -1.825,-1.8118 -4.34,-2.9317 -7.116,-2.9317 -0.029,0 -0.058,4e-4 -0.087,6e-4 h 0.004 c -3.264,0.0491 -6.203,1.4027 -8.326,3.5611 l -1.161,1.1613 0.007,-1.6444 c 0.009,-0.1628 0.014,-0.3538 0.014,-0.5459 0,-5.8887 -4.677,-10.6851 -10.519,-10.8774 l -0.018,-6e-4 h -16.053 c -5.865,0.1874 -10.549,4.9869 -10.549,10.8802 0,0.1913 0.005,0.3815 0.015,0.5702 l -0.001,-0.0265 v 1.6424 l -1.153,-1.164 c -2.124,-2.1655 -5.065,-3.5236 -8.324,-3.5748 h -0.016 c -1.557,0.0186 -3.025,0.383 -4.336,1.0198 l 0.06,-0.0267 c 0.452,-1.1059 0.716,-2.3891 0.72,-3.733 v -0.002 c -0.049,-3.1975 -1.377,-6.0757 -3.4931,-8.1536 l -0.3046,-0.3047 0.4376,0.0023 c 0.1166,0.0043 0.2535,0.0069 0.3911,0.0069 5.821,0 10.569,-4.5937 10.817,-10.3537 l 10e-4,-0.0222 V 47.5854 C 110.4,41.8027 105.651,37.209 99.8302,37.209 c -0.1378,0 -0.2747,0.0025 -0.4109,0.0078 l 0.0196,-7e-4 h -0.4395 l 0.3288,-0.3248 c 2.1448,-1.9681 3.4848,-4.784 3.4848,-7.913 0,-2.841 -1.105,-5.4237 -2.9075,-7.3432 L 99.9108,21.641 89.2236,10.9525 C 87.3129,9.14628 84.728,8.03603 81.8837,8.03603 c -3.137,0 -5.9588,1.35083 -7.9152,3.50267 l -0.0078,0.0084 -0.2971,0.2967 0.0024,-0.4317 c 0.0078,-0.153 0.0123,-0.3328 0.0123,-0.5135 0,-5.79752 -4.6109,-10.518139 -10.3656,-10.694743 H 48.1746 C 42.4036,0.380461 37.7929,5.10127 37.7929,10.8988 c 0,0.1809 0.0045,0.361 0.0133,0.5396 l -10e-4,-0.0255 v 0.4325 L 37.4924,11.5291 C 35.5266,9.37135 32.7051,8.02249 29.5688,8.02249 c -2.8433,0 -5.4276,1.10868 -7.3447,2.91671 l 0.0055,-0.0051 -10.6881,10.6881 c -1.7723,1.9224 -2.859,4.5004 -2.859,7.3321 0,3.1285 1.3265,5.9473 3.4477,7.9246 l 0.0063,0.0059 0.3151,0.3152 -0.456,-0.0026 c -0.155,-0.0078 -0.3364,-0.0125 -0.5188,-0.0125 -5.7946,0 -10.512864,4.6083 -10.689664,10.3601 l -3.93e-4,0.0163 v 15.1216 c 0.176996,5.771 4.897807,10.3817 10.695157,10.3817 0.1809,0 0.361,-0.0045 0.5396,-0.0133 l -0.0255,0.001 h 0.4385 l -0.3155,0.3126 c -2.1212,2.0886 -3.44808,4.9782 -3.4889,8.1787 v 0.0074 c -3.9e-4,0.021 -3.9e-4,0.0456 -3.9e-4,0.0703 0,2.7328 1.10593,5.2074 2.89469,7.0005 l 10.6873,10.6928 c 1.7965,1.7884 4.2742,2.8944 7.0102,2.8944 0.0279,0 0.0553,0 0.083,0 h 0.0082 c 3.1966,-0.05 6.074,-1.375 8.1542,-3.4878 l 0.0014,-0.0015 0.3212,-0.3211 -0.0023,0.4561 c -0.0046,0.1165 -0.0071,0.2535 -0.0071,0.391 0,5.8213 4.5937,10.5693 10.3541,10.8173 l 0.0223,10e-4 h 15.1154 c 5.7827,-0.249 10.3764,-4.997 10.3764,-10.8183 0,-0.1373 -0.0026,-0.2747 -0.0079,-0.4107 l 8e-4,0.0197 v -0.4494 l 0.3006,0.3026 c 2.0178,2.1611 4.8841,3.5081 8.0644,3.5081 0.0406,0 0.0812,0 0.1216,-10e-4 h -0.0059 c 1.3652,-0.001 2.6671,-0.27 3.8563,-0.759 l -0.0677,0.025 c -0.6032,1.325 -0.9547,2.874 -0.9547,4.505 0,3.179 1.3357,6.047 3.4768,8.071 l 0.0053,0.005 1.1832,1.184 -1.6738,-0.007 c -0.125,-0.005 -0.2718,-0.007 -0.4191,-0.007 -5.9129,0 -10.7379,4.659 -11.0038,10.506 l -8e-4,0.024 v 16.066 c 0.2665,5.871 5.0915,10.531 11.0048,10.531 0.1471,0 0.2943,-0.003 0.4401,-0.009 h -0.021 1.6489 l -1.1636,1.153 c -2.1691,2.129 -3.5282,5.077 -3.5749,8.343 v 0.009 c -4e-4,0.024 -6e-4,0.052 -6e-4,0.08 0,2.773 1.1197,5.285 2.9316,7.107 l 11.3564,11.356 c 1.8183,1.819 4.3303,2.944 7.1063,2.944 h 0.079 -0.004 c 3.276,-0.044 6.225,-1.412 8.343,-3.591 l 0.002,-0.003 1.172,-1.174 -0.007,1.677 c -0.008,0.162 -0.013,0.351 -0.013,0.541 0,5.889 4.677,10.685 10.518,10.876 l 0.018,0.001 h 16.053 c 5.877,-0.261 10.543,-5.088 10.543,-11.006 0,-0.145 -0.003,-0.289 -0.009,-0.433 l 0.001,0.021 v -1.646 l 1.177,1.192 c 2.129,2.141 5.061,3.482 8.306,3.532 h 0.102 c 2.769,0 5.277,-1.12 7.094,-2.932 l 11.32,-11.332 c 1.833,-1.817 2.968,-4.337 2.968,-7.122 v -0.042 0.002 c -0.042,-3.283 -1.394,-6.243 -3.556,-8.388 l -1.16,-1.16 1.638,0.007 c 0.162,0.008 0.351,0.013 0.541,0.013 5.889,0 10.685,-4.677 10.876,-10.518 l 0.001,-0.018 v -16.052 c -0.192,-5.86 -4.988,-10.537 -10.877,-10.537 -0.19,0 -0.379,0.004 -0.567,0.014 l 0.026,-10e-4 z M 81.8945,84.4391 79.3683,81.8882 C 79.247,81.7645 79.0838,81.7241 78.9566,81.6107 78.1902,81.0132 77.3181,80.491 76.3855,80.0817 L 76.307,80.0509 c -0.8736,-0.2323 -1.8818,-0.3781 -2.9199,-0.4037 l -0.0161,-3e-4 c -1.0961,0.1495 -2.0872,0.4179 -3.0218,0.7972 l 0.0833,-0.0298 c -0.1507,0.072 -0.3165,0.0667 -0.4646,0.1495 -1.8092,1.0373 -3.903,1.9293 -6.105,2.5676 l -0.2049,0.0511 c -0.1723,0.048 -0.291,0.1756 -0.4572,0.235 -0.5243,0.2071 -0.974,0.4427 -1.3944,0.7194 l 0.0285,-0.0177 c -1.7537,0.9262 -3.0303,2.5555 -3.4642,4.5023 l -0.0084,0.0447 c -0.1539,0.4651 -0.2679,1.008 -0.3205,1.569 l -0.0023,0.03 c -0.0106,0.1664 -0.0966,0.3081 -0.0966,0.4773 v 3.6245 h -4.4331 l 0.0182,-3.5812 c 8e-4,-0.1836 -0.0902,-0.3375 -0.102,-0.5186 -0.0516,-0.553 -0.155,-1.0606 -0.3069,-1.5466 l 0.0141,0.0529 C 52.7166,86.783 51.4706,85.1447 49.7813,84.2087 l -0.0347,-0.0176 c -0.4337,-0.2934 -0.9305,-0.5538 -1.456,-0.7569 l -0.051,-0.0176 c -0.157,-0.055 -0.2708,-0.1757 -0.4331,-0.2222 -2.4101,-0.6917 -4.5058,-1.5835 -6.4612,-2.6942 l 0.1452,0.076 C 41.3387,80.491 41.1693,80.4971 41.0143,80.4235 40.5952,80.2332 40.1032,80.0707 39.5917,79.9604 l -0.0491,-0.009 c -0.4262,-0.1327 -0.9268,-0.2339 -1.4423,-0.2841 l -0.0317,-0.0026 -0.0758,-4e-4 c -0.4758,0 -0.9413,0.0432 -1.3932,0.1266 l 0.0471,-0.0073 c -0.5598,0.0522 -1.0734,0.1556 -1.5659,0.3073 l 0.0544,-0.0143 c -0.488,0.1935 -0.9046,0.4074 -1.2971,0.6554 l 0.0314,-0.0185 c -0.5127,0.2669 -0.9546,0.5628 -1.3608,0.8997 l 0.0125,-0.0098 c -0.1279,0.1119 -0.2912,0.1517 -0.4132,0.2728 l -2.5694,2.5698 -3.1333,-3.1397 2.5509,-2.5262 c 0.1272,-0.1256 0.1707,-0.2951 0.2875,-0.4278 0.3247,-0.3855 0.6185,-0.8176 0.8657,-1.2784 l 0.0196,-0.04 c 0.2385,-0.3722 0.4588,-0.8012 0.6382,-1.2509 l 0.0182,-0.052 c 0.2738,-0.7074 0.4323,-1.5261 0.4323,-2.3816 0,-0.6974 -0.1054,-1.3703 -0.301,-2.0035 l 0.0128,0.0483 C 30.8062,70.8074 30.6339,70.291 30.4108,69.8028 l 0.0193,0.0467 C 30.3555,69.6931 30.361,69.5222 30.275,69.3687 29.2421,67.5634 28.352,65.4736 27.7143,63.2769 l -0.051,-0.2057 c -0.0471,-0.1628 -0.1682,-0.2747 -0.2237,-0.4317 -0.2208,-0.5686 -0.4798,-1.0584 -0.7873,-1.5129 l 0.0169,0.0265 c -0.2378,-0.425 -0.4874,-0.7908 -0.7657,-1.1322 l 0.0112,0.0137 C 25.5478,59.6539 25.1451,59.3125 24.7103,59.0148 L 24.684,58.9978 C 24.348,58.723 23.9726,58.467 23.5759,58.2446 l -0.0393,-0.0202 c -0.3924,-0.1785 -0.8549,-0.3355 -1.3349,-0.447 l -0.0516,-0.0102 c -0.4623,-0.153 -1.0027,-0.2664 -1.56,-0.3194 l -0.0304,-0.0024 c -0.158,-0.0092 -0.2914,-0.0912 -0.4521,-0.0912 h -3.6233 v -4.44 l 3.6243,0.0182 c 1.0027,-0.0151 1.9538,-0.2188 2.8252,-0.5769 l -0.0516,0.019 c 0.3403,-0.1518 0.6228,-0.3022 0.8942,-0.4695 l -0.0328,0.0188 c 0.5666,-0.2939 1.055,-0.626 1.4996,-1.0082 l -0.0102,0.0086 c 0.2688,-0.2413 0.5137,-0.4945 0.7402,-0.7637 l 0.0094,-0.0114 c 0.3499,-0.4075 0.6636,-0.8643 0.9262,-1.3531 l 0.0196,-0.0409 c 0.1727,-0.2951 0.3395,-0.6422 0.4796,-1.0027 l 0.0176,-0.051 c 0.0618,-0.1742 0.1806,-0.3106 0.2316,-0.4906 0.6876,-2.4049 1.5776,-4.4971 2.6871,-6.448 l -0.0751,0.1433 c 0.0843,-0.1505 0.078,-0.3179 0.1516,-0.4704 0.2029,-0.4401 0.3748,-0.9548 0.4892,-1.4907 l 0.0091,-0.049 c 0.1236,-0.4029 0.2189,-0.8778 0.2688,-1.3662 l 0.0023,-0.032 c 8e-4,-0.0418 0.0014,-0.091 0.0014,-0.1405 0,-0.4858 -0.0451,-0.9615 -0.1321,-1.4222 l 0.0075,0.0475 C 31.0144,35.4553 30.9169,34.974 30.7766,34.5115 l 0.0141,0.0539 c -0.2015,-0.518 -0.4293,-0.9619 -0.6966,-1.3781 l 0.0185,0.0303 C 29.8563,32.7354 29.5769,32.32 29.26,31.9362 l 0.0104,0.0129 c -0.1197,-0.1373 -0.1633,-0.312 -0.2936,-0.4422 l -2.5639,-2.5573 3.1337,-3.1333 2.5204,2.545 c 0.3518,0.2912 0.7452,0.5587 1.163,0.7875 l 0.0393,0.0192 c 0.2547,0.2008 0.5406,0.395 0.8398,0.5691 l 0.0353,0.0188 c 1.0106,0.5546 2.2087,0.8948 3.483,0.9292 h 0.0108 l 0.0216,0.0058 0.1334,-0.0353 c 1.2074,-0.0437 2.3322,-0.3571 3.3292,-0.881 L 41.08,29.7952 c 0.1354,-0.066 0.2852,-0.0353 0.4184,-0.1099 1.8008,-1.0331 3.8845,-1.9211 6.0759,-2.5557 l 0.2033,-0.0502 c 0.1633,-0.0459 0.2763,-0.1662 0.4337,-0.2217 0.5539,-0.2133 1.0302,-0.4618 1.4737,-0.7561 l -0.0279,0.0177 c 0.449,-0.2473 0.8359,-0.5108 1.195,-0.8069 l -0.0129,0.0104 c 0.3536,-0.3422 0.6724,-0.7162 0.954,-1.1179 l 0.0165,-0.0247 c 0.2973,-0.3582 0.5702,-0.7583 0.8041,-1.1833 l 0.02,-0.0392 c 0.1772,-0.3905 0.3344,-0.8517 0.4474,-1.3301 l 0.0102,-0.0529 c 0.148,-0.4514 0.2591,-0.98 0.3116,-1.5253 l 0.0024,-0.0306 c 0.0118,-0.1723 0.0997,-0.3187 0.0997,-0.4933 v -3.6243 h 4.4396 l -0.0184,3.5811 c -8e-4,0.1831 0.0896,0.3356 0.1004,0.5157 0.052,0.5724 0.1594,1.0985 0.3179,1.6018 l -0.0143,-0.0536 c 0.1228,0.5343 0.281,0.9996 0.4802,1.4423 l -0.0197,-0.0483 c 0.2512,0.4645 0.5212,0.8644 0.825,1.2354 L 59.605,24.1619 c 0.2982,0.4278 0.6181,0.8026 0.9707,1.1434 l 0.002,0.0024 c 0.3463,0.2884 0.7325,0.5549 1.142,0.7845 l 0.0385,0.0196 c 0.4146,0.2761 0.8899,0.5239 1.3912,0.7194 l 0.0514,0.0176 c 0.1649,0.0583 0.2826,0.1841 0.4529,0.2316 2.4038,0.6907 4.4932,1.5782 6.4441,2.6824 l -0.1464,-0.0761 c 0.1272,0.0714 0.272,0.0412 0.4019,0.1049 0.9605,0.5083 2.0933,0.8238 3.2956,0.8662 l 0.0133,4e-4 0.1099,0.0282 0.0681,-0.0184 c 1.2564,-0.0412 2.4267,-0.3732 3.4571,-0.9311 l -0.0412,0.0204 c 0.3558,-0.2002 0.6605,-0.4052 0.9478,-0.6313 l -0.0157,0.0118 c 0.4337,-0.2358 0.8065,-0.4866 1.1538,-0.7682 l -0.0137,0.011 2.5631,-2.5637 3.1396,3.1396 -2.5451,2.5201 c -0.1269,0.1256 -0.1699,0.2952 -0.287,0.427 -0.3258,0.386 -0.6201,0.8189 -0.8679,1.2804 l -0.0197,0.0402 c -0.2394,0.3721 -0.4599,0.8006 -0.6393,1.25 l -0.0182,0.0516 c -0.1315,0.4164 -0.2335,0.9066 -0.2865,1.4109 L 80.3647,35.97 c -0.0794,0.4146 -0.125,0.8915 -0.125,1.3789 0,0.0406 4e-4,0.081 0.001,0.1217 v -0.0059 c 0.0497,0.5227 0.1437,1.0007 0.2796,1.4611 l -0.0137,-0.054 c 0.1223,0.5832 0.2924,1.0961 0.5122,1.5816 l -0.0193,-0.0475 c 0.0754,0.157 0.0687,0.3297 0.1556,0.4837 1.0373,1.8092 1.9293,3.903 2.5675,6.105 l 0.0506,0.2049 c 0.053,0.1852 0.174,0.3257 0.2386,0.5043 0.1497,0.3846 0.3051,0.7064 0.4821,1.0148 l -0.019,-0.0363 c 0.2904,0.5554 0.6173,1.0342 0.9929,1.4704 l -0.0086,-0.0098 c 0.2272,0.2684 0.4627,0.5111 0.7136,0.7374 l 0.0067,0.0059 c 0.4454,0.3871 0.947,0.7293 1.4862,1.0095 l 0.0426,0.0203 c 0.2296,0.1424 0.502,0.2876 0.7837,0.4156 l 0.0465,0.019 c 0.8228,0.3422 1.7773,0.5475 2.778,0.5636 h 3.6361 v 4.4396 l -3.6239,-0.0183 c -0.1682,0 -0.3085,0.0844 -0.4739,0.095 -0.584,0.0544 -1.1205,0.1668 -1.6326,0.333 l 0.053,-0.0149 c -1.9733,0.4346 -3.5914,1.6868 -4.5093,3.3745 l -0.0177,0.0353 c -0.2812,0.4203 -0.5327,0.9021 -0.7307,1.4105 l -0.0177,0.0514 c -0.0557,0.1601 -0.1799,0.2763 -0.2256,0.4421 -0.6837,2.3926 -1.5695,4.4743 -2.6746,6.4154 l 0.0746,-0.142 c -0.0895,0.1601 -0.084,0.339 -0.1615,0.5023 -0.187,0.4129 -0.3483,0.8979 -0.4592,1.4018 l -0.0092,0.0499 c -0.1338,0.4289 -0.2355,0.9326 -0.2865,1.4515 l -0.0024,0.0317 c -0.0149,0.1678 -0.0235,0.3631 -0.0235,0.5605 0,1.3506 0.3989,2.6078 1.0851,3.6612 l -0.0161,-0.0255 c 0.2689,0.5141 0.5667,0.9571 0.9072,1.3637 l -0.0098,-0.0118 c 0.113,0.1288 0.153,0.2928 0.2763,0.4155 l 2.5631,2.5631 z m 80.2995,81.1829 -3.017,-3.042 c -0.118,-0.119 -0.275,-0.158 -0.398,-0.267 -0.405,-0.346 -0.858,-0.655 -1.344,-0.913 l -0.041,-0.019 c -1.122,-0.608 -2.456,-0.965 -3.874,-0.965 -1.18,0 -2.303,0.247 -3.319,0.693 l 0.053,-0.02 c -0.158,0.075 -0.329,0.068 -0.484,0.155 -1.952,1.119 -4.21,2.084 -6.584,2.777 l -0.223,0.055 c -0.166,0.047 -0.281,0.17 -0.441,0.227 -0.538,0.211 -1,0.453 -1.431,0.738 l 0.028,-0.017 c -1.745,0.928 -3.013,2.554 -3.444,4.495 l -0.008,0.045 c -0.153,0.463 -0.268,1.003 -0.321,1.562 l -0.002,0.03 c -0.01,0.165 -0.096,0.307 -0.096,0.475 v 4.342 h -5.702 l 0.025,-4.305 c 0.001,-0.176 -0.087,-0.323 -0.098,-0.496 -0.052,-0.576 -0.16,-1.107 -0.321,-1.614 l 0.015,0.053 c -0.123,-0.536 -0.282,-1.004 -0.482,-1.449 l 0.019,0.048 c -0.539,-0.899 -1.137,-1.678 -1.813,-2.381 l 0.004,0.004 c -0.317,-0.26 -0.671,-0.504 -1.044,-0.717 l -0.038,-0.019 c -0.449,-0.305 -0.963,-0.574 -1.508,-0.781 l -0.052,-0.018 c -0.149,-0.052 -0.256,-0.166 -0.41,-0.21 -2.586,-0.74 -4.836,-1.701 -6.933,-2.9 l 0.152,0.08 c -0.164,-0.093 -0.344,-0.087 -0.51,-0.166 -0.412,-0.188 -0.896,-0.35 -1.399,-0.462 l -0.05,-0.01 c -0.438,-0.137 -0.952,-0.24 -1.482,-0.289 l -0.031,-0.003 c -1.057,0.033 -2.063,0.184 -3.027,0.442 l 0.093,-0.021 c -0.471,0.189 -0.872,0.396 -1.251,0.634 l 0.032,-0.019 c -0.52,0.272 -0.969,0.574 -1.38,0.919 l 0.011,-0.01 c -0.131,0.116 -0.3,0.158 -0.426,0.284 l -3.06,3.066 -4.021,-4.022 3.054,-3.042 c 0.121,-0.12 0.161,-0.282 0.273,-0.408 0.339,-0.4 0.644,-0.848 0.898,-1.328 l 0.02,-0.04 c 0.672,-1.032 1.072,-2.295 1.072,-3.651 0,-0.697 -0.106,-1.369 -0.302,-2.001 l 0.013,0.048 c -0.122,-0.588 -0.293,-1.106 -0.516,-1.596 l 0.02,0.047 c -0.074,-0.155 -0.069,-0.325 -0.153,-0.477 -1.117,-1.948 -2.078,-4.202 -2.766,-6.573 l -0.055,-0.221 c -0.047,-0.163 -0.169,-0.275 -0.225,-0.433 -0.22,-0.564 -0.476,-1.048 -0.779,-1.499 l 0.017,0.027 c -1.357,-2.018 -3.5186,-3.406 -6.015,-3.703 l -0.0401,-0.004 c -0.1785,-0.012 -0.3312,-0.103 -0.5127,-0.103 h -4.3421 v -5.703 l 4.3419,0.024 c 1.0041,-0.016 1.9564,-0.22 2.8286,-0.579 l -0.0516,0.019 c 0.3348,-0.149 0.6134,-0.297 0.881,-0.462 l -0.032,0.018 c 0.571,-0.297 1.063,-0.631 1.511,-1.017 l -0.01,0.009 c 0.677,-0.613 1.244,-1.332 1.678,-2.133 l 0.021,-0.043 c 0.168,-0.288 0.332,-0.628 0.47,-0.981 l 0.018,-0.051 c 0.064,-0.176 0.183,-0.313 0.234,-0.495 0.738,-2.59 1.699,-4.845 2.9,-6.945 l -0.079,0.151 c 0.088,-0.156 0.083,-0.332 0.159,-0.492 0.189,-0.417 0.352,-0.907 0.464,-1.416 l 0.009,-0.05 c 0.132,-0.426 0.234,-0.927 0.285,-1.443 l 0.002,-0.032 c 10e-4,-0.029 10e-4,-0.062 10e-4,-0.095 0,-0.47 -0.043,-0.93 -0.124,-1.377 l 0.007,0.047 c -0.053,-0.562 -0.157,-1.077 -0.308,-1.57 l 0.014,0.055 c -0.19,-0.478 -0.398,-0.884 -0.639,-1.268 l 0.018,0.031 c -0.274,-0.528 -0.58,-0.983 -0.93,-1.4 l 0.01,0.011 c -0.107,-0.121 -0.146,-0.278 -0.262,-0.395 l -3.072,-3.078 4.022,-4.023 3.042,3.054 c 0.337,0.276 0.714,0.532 1.113,0.753 l 0.039,0.019 c 0.274,0.219 0.581,0.427 0.904,0.611 l 0.035,0.019 c 1.001,0.547 2.186,0.883 3.446,0.919 h 0.011 l 0.032,0.009 c 0.069,0 0.134,-0.051 0.203,-0.053 1.177,-0.05 2.27,-0.354 3.244,-0.859 l -0.043,0.021 c 0.141,-0.068 0.296,-0.037 0.436,-0.114 1.942,-1.121 4.189,-2.08 6.554,-2.762 l 0.215,-0.053 c 0.163,-0.045 0.276,-0.167 0.434,-0.222 0.553,-0.213 1.028,-0.461 1.47,-0.755 l -0.028,0.018 c 0.452,-0.249 0.84,-0.514 1.201,-0.811 l -0.014,0.01 c 1.113,-0.939 1.911,-2.2192 2.237,-3.6772 l 0.009,-0.0451 c 0.152,-0.4617 0.265,-1.0008 0.318,-1.5581 l 0.002,-0.0302 c 0.011,-0.1687 0.098,-0.312 0.098,-0.4837 v -4.3432 h 5.703 l -0.025,4.311 c 0,0.1786 0.088,0.3277 0.099,0.5034 0.053,0.5757 0.161,1.1051 0.322,1.6114 l -0.014,-0.0534 c 0.436,1.9811 1.69,3.6071 3.382,4.5321 l 0.036,0.018 c 0.419,0.279 0.898,0.53 1.405,0.727 l 0.052,0.018 c 0.162,0.057 0.279,0.181 0.447,0.228 2.585,0.738 4.836,1.697 6.933,2.895 l -0.152,-0.08 c 0.131,0.073 0.281,0.043 0.415,0.108 0.954,0.501 2.078,0.814 3.271,0.858 h 0.014 l 0.127,0.033 0.052,-0.013 c 1.267,-0.039 2.448,-0.374 3.486,-0.938 l -0.041,0.021 c 0.349,-0.197 0.648,-0.398 0.93,-0.619 l -0.016,0.012 c 0.44,-0.238 0.819,-0.493 1.171,-0.779 l -0.014,0.011 3.066,-3.066 4.023,4.022 -3.054,3.024 c -0.123,0.122 -0.164,0.287 -0.279,0.416 -0.343,0.404 -0.651,0.857 -0.907,1.342 l -0.02,0.041 c -0.663,1.035 -1.057,2.297 -1.057,3.652 0,0.713 0.109,1.401 0.311,2.047 l -0.013,-0.049 c 0.121,0.56 0.284,1.051 0.494,1.517 l -0.019,-0.048 c 0.079,0.167 0.073,0.35 0.165,0.513 1.12,1.945 2.081,4.195 2.767,6.563 l 0.054,0.219 c 0.052,0.186 0.173,0.327 0.238,0.506 0.482,1.253 1.214,2.316 2.141,3.17 l 0.006,0.005 c 0.459,0.401 0.976,0.755 1.532,1.042 l 0.042,0.021 c 0.22,0.135 0.482,0.274 0.752,0.398 l 0.047,0.019 c 0.827,0.344 1.785,0.55 2.79,0.566 h 4.348 v 5.69 l -4.341,-0.025 c -0.175,0 -0.32,0.088 -0.49,0.099 -0.587,0.055 -1.125,0.168 -1.64,0.334 l 0.053,-0.015 c -1.991,0.457 -3.62,1.735 -4.538,3.451 l -0.018,0.037 c -0.253,0.386 -0.483,0.829 -0.668,1.296 l -0.018,0.051 c -0.063,0.176 -0.197,0.303 -0.249,0.486 -0.729,2.576 -1.683,4.819 -2.875,6.908 l 0.079,-0.15 c -0.092,0.164 -0.087,0.346 -0.166,0.512 -0.344,0.859 -0.608,1.86 -0.745,2.9 l -0.007,0.064 c -0.013,0.162 -0.021,0.349 -0.021,0.539 0,1.322 0.384,2.554 1.046,3.59 l -0.016,-0.026 c 0.279,0.543 0.593,1.012 0.954,1.439 l -0.009,-0.011 c 0.109,0.124 0.146,0.282 0.264,0.401 l 3.066,3.066 z M 134.391,111.66 h -0.006 c -12.229,0 -22.143,9.914 -22.143,22.143 0,12.229 9.914,22.143 22.143,22.143 12.227,0 22.139,-9.91 22.143,-22.137 v 0 c -0.013,-12.223 -9.915,-22.129 -22.135,-22.149 z m 0,28.588 h -0.006 c -3.559,0 -6.445,-2.886 -6.445,-6.445 0,-3.56 2.886,-6.445 6.445,-6.445 3.56,0 6.445,2.885 6.445,6.445 v 0.006 0 c -0.01,3.552 -2.887,6.428 -6.438,6.438 h -0.001 z"
         fill="#000000"
         id="path1-4"
         style="fill:#72fff4;fill-opacity:1" /></g><path
       style="fill:#bfbfbf;fill-opacity:1;stroke:#8fff00;stroke-width:0;stroke-linejoin:round"
       d="m 83.79172,77.451759 -1.664704,-1.606291 -3.241794,3.358611 c 0,0 -0.730133,0.934572 0.02919,1.723114 0.75934,0.788547 3.32941,3.241793 3.32941,3.241793 l 1.460266,-1.577089 -1.51868,-1.431059 0.05841,-2.190399 z"
       id="path7-8" /><path
       style="fill:#bfbfbf;fill-opacity:1;stroke:#8fff00;stroke-width:0;stroke-linejoin:round"
       d="m 82.102355,79.051786 -0.04132,2.312945 h 17.760111 l -0.04132,-2.18904 z"
       id="path1-7" /><path
       style="fill:#bfbfbf;fill-opacity:1;stroke:#8fff00;stroke-width:0;stroke-linejoin:round"
       d="m 68.316095,66.295926 -1.606292,1.664707 3.358611,3.241789 c 0,0 0.934571,0.730131 1.723113,-0.02919 0.788547,-0.759335 3.241794,-3.329405 3.241794,-3.329405 l -1.577089,-1.460268 -1.431059,1.518682 -2.1904,-0.05841 z"
       id="path9" /><path
       style="fill:#bfbfbf;fill-opacity:1;stroke:#8fff00;stroke-width:0;stroke-linejoin:round"
       d="m 72.297906,87.376827 -2.31295,-0.01334 v 5.722394 l 2.189039,-0.01334 z"
       id="path8-8" /><path
       style="fill:#bfbfbf;fill-opacity:1;stroke:#8fff00;stroke-width:0;stroke-linejoin:round"
       d="m 68.301831,90.783252 -1.606289,1.664704 3.358607,3.241789 c 0,0 0.934571,0.730133 1.723113,-0.02919 0.788547,-0.759334 3.241794,-3.329404 3.241794,-3.329404 l -1.577089,-1.460266 -1.431059,1.51868 -2.1904,-0.05841 z"
       id="path9-7" /><path
       id="rect9"
       style="fill:#000000;fill-opacity:1;stroke:#8fff00;stroke-width:0;stroke-linejoin:round"
       d="m 52.604353,96.41272 v 10.7797 h 37.168274 v -10.7797 z m 1.573027,1.513339 33.961588,0.112912 -0.112912,7.719339 -33.771157,0.18819 z"
       sodipodi:nodetypes="cccccccccc" /></g></svg>
